<svg width="108" height="37" viewBox="0 0 108 37" fill="none" xmlns="http://www.w3.org/2000/svg">
<path d="M0.00589242 35.4616L8.1782 35.4642L8.18211 23.4778L20.1163 23.4817L20.1183 17.287L8.18412 17.2831L8.18589 11.8616L21.3052 11.8659L21.3072 5.60069L0.015625 5.59375L0.00589242 35.4616Z" fill="#0050A5"/>
<path d="M32.446 13.862L24.3828 13.8594L24.3758 35.4745L32.4389 35.4771L32.446 13.862Z" fill="#0050A5"/>
<path d="M32.446 5.60419L24.3828 5.60156L24.3808 11.8668L32.4439 11.8695L32.446 5.60419Z" fill="#0050A5"/>
<path d="M45.1023 5.612L37.0391 5.60938L37.0293 35.4802L45.0926 35.4828L45.1023 5.612Z" fill="#0050A5"/>
<path d="M70.1393 13.8741L62.0761 13.8715L62.0722 25.8256C62.0711 29.0273 61.3131 30.0885 59.4115 30.0878C57.5925 30.0872 57.0358 28.7082 57.0365 26.7443L57.0407 13.8698L48.9922 13.8672L48.9876 28.0793C48.9859 33.2038 51.4555 36.0211 56.1077 36.0226C58.8436 36.0235 60.7041 35.2509 62.0993 33.2051C62.1256 33.7814 62.1665 34.9662 62.2636 35.4867L70.1736 35.4892C70.133 33.4282 70.1339 30.5 70.1345 28.583L70.1393 13.8741Z" fill="#0050A5"/>
<path d="M100.22 13.3601C96.6176 13.3589 94.8246 14.8725 93.5712 16.3332C92.8553 14.9512 91.2873 13.3572 88.0414 13.3562C84.9252 13.3551 83.1146 14.701 81.9378 16.1825C81.8968 15.4151 81.7733 14.3714 81.6909 13.8774L73.9608 13.8749C74.0015 15.7154 74.0008 17.8058 74.0001 19.7903L73.995 35.4901L81.9462 35.4927L81.9503 23.0592C81.9512 20.2544 82.6945 19.2463 84.4781 19.2469C86.2824 19.2475 86.6917 20.5794 86.6912 22.2023L86.6868 35.4912L94.6115 35.4938L94.6156 22.8723C94.6165 20.3909 95.2949 19.2239 97.1021 19.2245C98.8268 19.225 99.357 20.5365 99.3565 22.1329L99.3522 35.4954L107.235 35.4979L107.24 21.4387C107.245 15.8997 104.256 13.3614 100.22 13.3601Z" fill="#0050A5"/>
<path d="M100.968 0.0322354L100.967 2.32252L73.968 2.31373L73.9675 3.99543L100.967 4.00423L100.966 6.29452L107.245 6.29657L107.247 0.0342815L100.968 0.0322354Z" fill="#FF6B00"/>
</svg>
